<svg width="54" height="28" viewBox="0 0 54 28" fill="none" xmlns="http://www.w3.org/2000/svg">
<rect x="1" y="1" width="52" height="26" rx="13" fill="white" stroke="#888888" stroke-width="2"/>
<circle cx="40" cy="14" r="10" fill="#484848"/>
<path d="M13.6616 8.21946C13.7033 8.31508 13.716 8.4218 13.698 8.52583C13.68 8.62987 13.632 8.72644 13.5604 8.80307C12.9992 9.40824 12.5931 10.1463 12.3793 10.9494C11.6638 13.6197 13.1953 16.3476 15.7969 17.0447C16.1363 17.1357 16.4764 17.1877 16.8126 17.203C16.9157 17.2073 17.0149 17.2428 17.0977 17.305C17.1804 17.3672 17.2431 17.4533 17.278 17.5526C17.3151 17.6561 17.3177 17.7699 17.2854 17.8762C17.253 17.9824 17.1875 18.0753 17.0991 18.1403C16.4226 18.6448 15.6473 18.9896 14.8298 19.1496C14.0122 19.3095 13.173 19.2806 12.3734 19.0649C9.40471 18.2695 7.66105 15.1587 8.47533 12.1198C9.08817 9.83261 10.9752 8.23562 13.1363 7.92354C13.2441 7.90733 13.3536 7.92741 13.4483 7.98077C13.5431 8.03413 13.6179 8.11789 13.6616 8.21946Z" fill="#484848"/>
</svg>
