<svg width="28" height="28" viewBox="0 0 28 28" fill="none" xmlns="http://www.w3.org/2000/svg">
<path d="M27.3713 23.6892L20.6742 16.9915C21.7183 15.2778 22.269 13.309 22.2656 11.3023C22.2656 5.24615 17.0182 1.43314e-07 10.9627 1.43314e-07C9.52299 -0.000232672 8.09734 0.283194 6.76718 0.834091C5.43702 1.38499 4.22841 2.19256 3.21038 3.21069C2.19235 4.22881 1.38486 5.43754 0.834011 6.76782C0.283167 8.09811 -0.000232649 9.5239 1.43301e-07 10.9637C1.43301e-07 17.0181 5.24742 22.266 11.3012 22.266C13.2416 22.2677 15.1474 21.7513 16.8215 20.7701L23.554 27.5068C23.8706 27.8226 24.2995 28 24.7467 28C25.1939 28 25.6228 27.8226 25.9394 27.5068L27.6105 25.8355C28.268 25.178 28.0288 24.3467 27.3713 23.6892ZM3.37423 10.9637C3.37399 9.96697 3.5701 8.97991 3.95136 8.05894C4.33261 7.13797 4.89153 6.30114 5.59621 5.59623C6.30089 4.89132 7.13751 4.33214 8.0583 3.95064C8.97909 3.56914 9.96601 3.37278 10.9627 3.37278C15.1557 3.37278 18.8914 7.10711 18.8914 11.3023C18.8909 13.3154 18.0911 15.2459 16.6678 16.6694C15.2444 18.0928 13.3141 18.8928 11.3012 18.8932C7.10821 18.8915 3.37423 15.1553 3.37423 10.9637Z" fill="black"/>
</svg>
