<svg width="23" height="22" viewBox="0 0 23 22" fill="none" xmlns="http://www.w3.org/2000/svg">
<path d="M17.2639 6.35488C17.9824 6.35488 18.5649 5.77243 18.5649 5.05394C18.5649 4.33545 17.9824 3.75301 17.2639 3.75301C16.5455 3.75301 15.963 4.33545 15.963 5.05394C15.963 5.77243 16.5455 6.35488 17.2639 6.35488Z" fill="black"/>
<path d="M11.4766 5.27414C10.3756 5.27414 9.29925 5.60063 8.38377 6.21233C7.4683 6.82403 6.75477 7.69347 6.33343 8.71069C5.91208 9.72791 5.80184 10.8472 6.01664 11.9271C6.23144 13.007 6.76164 13.9989 7.54018 14.7775C8.31873 15.556 9.31066 16.0862 10.3905 16.301C11.4704 16.5158 12.5897 16.4056 13.607 15.9842C14.6242 15.5629 15.4936 14.8493 16.1053 13.9339C16.717 13.0184 17.0435 11.9421 17.0435 10.8411C17.0435 9.36462 16.457 7.94865 15.413 6.90465C14.369 5.86065 12.953 5.27414 11.4766 5.27414ZM11.4766 14.4548C10.7619 14.4548 10.0632 14.2428 9.46892 13.8457C8.87465 13.4487 8.41147 12.8843 8.13796 12.224C7.86444 11.5636 7.79288 10.837 7.93232 10.1361C8.07175 9.43507 8.41592 8.79116 8.92131 8.28578C9.4267 7.78039 10.0706 7.43622 10.7716 7.29678C11.4726 7.15735 12.1992 7.22891 12.8595 7.50242C13.5198 7.77594 14.0842 8.23912 14.4813 8.83339C14.8784 9.42766 15.0903 10.1263 15.0903 10.8411C15.0903 11.7995 14.7096 12.7186 14.0319 13.3963C13.3542 14.074 12.435 14.4548 11.4766 14.4548Z" fill="black"/>
<path d="M11.4766 1.95321C14.3712 1.95321 14.7145 1.96405 15.8573 2.01645C16.5447 2.02461 17.2256 2.15082 17.8702 2.38956C18.3378 2.56997 18.7626 2.84629 19.117 3.20073C19.4715 3.55518 19.7478 3.9799 19.9282 4.44757C20.1669 5.09219 20.2931 5.77304 20.3013 6.46041C20.3537 7.60324 20.3645 7.94654 20.3645 10.842C20.3645 13.7375 20.3537 14.079 20.3013 15.2218C20.2931 15.9092 20.1669 16.5901 19.9282 17.2347C19.7478 17.7023 19.4715 18.1271 19.117 18.4815C18.7626 18.836 18.3378 19.1123 17.8702 19.2927C17.2256 19.5314 16.5447 19.6576 15.8573 19.6658C14.7145 19.7182 14.3712 19.729 11.4766 19.729C8.58204 19.729 8.23874 19.7182 7.0959 19.6658C6.40854 19.6576 5.72769 19.5314 5.08307 19.2927C4.6154 19.1123 4.19068 18.836 3.83623 18.4815C3.48179 18.1271 3.20547 17.7023 3.02506 17.2347C2.78632 16.5901 2.66011 15.9092 2.65195 15.2218C2.59955 14.079 2.58871 13.7357 2.58871 10.8411C2.58871 7.94654 2.59955 7.60324 2.65195 6.46041C2.66011 5.77304 2.78632 5.09219 3.02506 4.44757C3.20547 3.9799 3.48179 3.55518 3.83623 3.20073C4.19068 2.84629 4.6154 2.56997 5.08307 2.38956C5.72769 2.15082 6.40854 2.02461 7.0959 2.01645C8.23874 1.96405 8.58204 1.95321 11.4766 1.95321ZM11.4766 0C8.53235 0 8.16285 0.012648 7.00646 0.0650468C6.10735 0.0832021 5.21782 0.253655 4.37569 0.569159C3.6554 0.847683 3.00126 1.27363 2.4552 1.8197C1.90913 2.36577 1.48318 3.01991 1.20466 3.74019C0.889052 4.58261 0.718598 5.47245 0.700545 6.37187C0.648146 7.52826 0.635498 7.89595 0.635498 10.8411C0.635498 13.7863 0.648146 14.1549 0.700545 15.3113C0.7187 16.2104 0.889153 17.0999 1.20466 17.9421C1.48318 18.6623 1.90913 19.3165 2.4552 19.8625C3.00126 20.4086 3.6554 20.8346 4.37569 21.1131C5.21811 21.4287 6.10795 21.5991 7.00737 21.6172C8.16375 21.6696 8.53235 21.6822 11.4766 21.6822C14.4209 21.6822 14.7904 21.6696 15.9468 21.6172C16.8462 21.5991 17.736 21.4287 18.5785 21.1131C19.2987 20.8346 19.9529 20.4086 20.4989 19.8625C21.045 19.3165 21.471 18.6623 21.7495 17.9421C22.0648 17.0996 22.2349 16.2097 22.2527 15.3104C22.3051 14.154 22.3177 13.7863 22.3177 10.8411C22.3177 7.89595 22.3051 7.52735 22.2527 6.37097C22.2345 5.47185 22.0641 4.58232 21.7486 3.74019C21.4701 3.01991 21.0441 2.36577 20.498 1.8197C19.952 1.27363 19.2978 0.847683 18.5776 0.569159C17.7351 0.253863 16.8452 0.0837144 15.9459 0.0659501C14.7895 0.0117445 14.4218 0 11.4766 0Z" fill="black"/>
</svg>
