<svg width="113" height="37" viewBox="0 0 113 37" fill="none" xmlns="http://www.w3.org/2000/svg">
<path d="M1.752 10.752H5.16V36H1.752V10.752ZM3.48 5.232C2.776 5.232 2.184 4.992 1.704 4.512C1.224 4.032 0.984 3.456 0.984 2.784C0.984 2.144 1.224 1.584 1.704 1.104C2.184 0.623998 2.776 0.383998 3.48 0.383998C4.184 0.383998 4.776 0.623998 5.256 1.104C5.736 1.552 5.976 2.096 5.976 2.736C5.976 3.44 5.736 4.032 5.256 4.512C4.776 4.992 4.184 5.232 3.48 5.232ZM24.0026 23.328L18.0506 28.8V36H14.6426V0.383998H18.0506V24.528L33.1226 10.752H37.3466L26.5466 21.072L38.3546 36H34.1786L24.0026 23.328ZM65.4795 10.752V36H62.2155V31.008C61.1915 32.704 59.8315 34 58.1355 34.896C56.4715 35.792 54.5835 36.24 52.4715 36.24C50.1035 36.24 47.9595 35.696 46.0395 34.608C44.1195 33.52 42.6155 32 41.5275 30.048C40.4395 28.096 39.8955 25.872 39.8955 23.376C39.8955 20.88 40.4395 18.656 41.5275 16.704C42.6155 14.752 44.1195 13.248 46.0395 12.192C47.9595 11.104 50.1035 10.56 52.4715 10.56C54.5195 10.56 56.3595 10.992 57.9915 11.856C59.6555 12.688 61.0155 13.92 62.0715 15.552V10.752H65.4795ZM52.7595 33.216C54.5195 33.216 56.1035 32.816 57.5115 32.016C58.9515 31.184 60.0715 30.016 60.8715 28.512C61.7035 27.008 62.1195 25.296 62.1195 23.376C62.1195 21.456 61.7035 19.744 60.8715 18.24C60.0715 16.736 58.9515 15.584 57.5115 14.784C56.1035 13.952 54.5195 13.536 52.7595 13.536C50.9675 13.536 49.3515 13.952 47.9115 14.784C46.5035 15.584 45.3835 16.736 44.5515 18.24C43.7515 19.744 43.3515 21.456 43.3515 23.376C43.3515 25.296 43.7515 27.008 44.5515 28.512C45.3835 30.016 46.5035 31.184 47.9115 32.016C49.3515 32.816 50.9675 33.216 52.7595 33.216ZM82.7468 3.024C81.2748 3.024 80.1548 3.424 79.3868 4.224C78.6508 5.024 78.2828 6.208 78.2828 7.776V10.752H86.0588V13.632H78.3788V36H74.9708V7.632C74.9708 5.328 75.6268 3.504 76.9388 2.16C78.2828 0.815998 80.1708 0.143998 82.6028 0.143998C83.5628 0.143998 84.4908 0.287998 85.3868 0.575998C86.2828 0.831999 87.0348 1.216 87.6428 1.728L86.4908 4.272C85.4988 3.44 84.2508 3.024 82.7468 3.024ZM101.052 33.216C102.62 33.216 104.06 32.944 105.372 32.4C106.716 31.824 107.852 30.992 108.78 29.904L110.7 32.112C109.58 33.456 108.188 34.48 106.524 35.184C104.86 35.888 103.02 36.24 101.004 36.24C98.412 36.24 96.108 35.696 94.092 34.608C92.076 33.488 90.508 31.952 89.388 30C88.268 28.048 87.708 25.84 87.708 23.376C87.708 20.912 88.236 18.704 89.292 16.752C90.38 14.8 91.868 13.28 93.756 12.192C95.644 11.104 97.788 10.56 100.188 10.56C102.428 10.56 104.444 11.072 106.236 12.096C108.06 13.12 109.5 14.544 110.556 16.368C111.644 18.192 112.22 20.272 112.284 22.608L91.548 26.64C92.188 28.688 93.34 30.304 95.004 31.488C96.7 32.64 98.716 33.216 101.052 33.216ZM100.188 13.488C98.428 13.488 96.844 13.904 95.436 14.736C94.06 15.536 92.972 16.672 92.172 18.144C91.404 19.584 91.02 21.248 91.02 23.136C91.02 23.616 91.036 23.968 91.068 24.192L108.876 20.736C108.492 18.624 107.516 16.896 105.948 15.552C104.38 14.176 102.46 13.488 100.188 13.488Z" fill="black"/>
</svg>
