<svg width="149" height="49" viewBox="0 0 149 49" fill="none" xmlns="http://www.w3.org/2000/svg">
<path d="M1.336 14.336H5.88V48H1.336V14.336ZM3.64 6.976C2.70133 6.976 1.912 6.656 1.272 6.016C0.632 5.376 0.312 4.608 0.312 3.712C0.312 2.85867 0.632 2.112 1.272 1.472C1.912 0.831997 2.70133 0.511997 3.64 0.511997C4.57867 0.511997 5.368 0.831997 6.008 1.472C6.648 2.06933 6.968 2.79466 6.968 3.648C6.968 4.58667 6.648 5.376 6.008 6.016C5.368 6.656 4.57867 6.976 3.64 6.976ZM31.0035 31.104L23.0675 38.4V48H18.5235V0.511997H23.0675V32.704L43.1635 14.336H48.7955L34.3955 28.096L50.1395 48H44.5715L31.0035 31.104ZM86.306 14.336V48H81.954V41.344C80.5887 43.6053 78.7753 45.3333 76.514 46.528C74.2953 47.7227 71.778 48.32 68.962 48.32C65.8047 48.32 62.946 47.5947 60.386 46.144C57.826 44.6933 55.8207 42.6667 54.37 40.064C52.9193 37.4613 52.194 34.496 52.194 31.168C52.194 27.84 52.9193 24.8747 54.37 22.272C55.8207 19.6693 57.826 17.664 60.386 16.256C62.946 14.8053 65.8047 14.08 68.962 14.08C71.6927 14.08 74.146 14.656 76.322 15.808C78.5407 16.9173 80.354 18.56 81.762 20.736V14.336H86.306ZM69.346 44.288C71.6927 44.288 73.8047 43.7547 75.682 42.688C77.602 41.5787 79.0953 40.0213 80.162 38.016C81.2713 36.0107 81.826 33.728 81.826 31.168C81.826 28.608 81.2713 26.3253 80.162 24.32C79.0953 22.3147 77.602 20.7787 75.682 19.712C73.8047 18.6027 71.6927 18.048 69.346 18.048C66.9567 18.048 64.802 18.6027 62.882 19.712C61.0047 20.7787 59.5113 22.3147 58.402 24.32C57.3353 26.3253 56.802 28.608 56.802 31.168C56.802 33.728 57.3353 36.0107 58.402 38.016C59.5113 40.0213 61.0047 41.5787 62.882 42.688C64.802 43.7547 66.9567 44.288 69.346 44.288ZM109.329 4.032C107.366 4.032 105.873 4.56533 104.849 5.632C103.868 6.69866 103.377 8.27733 103.377 10.368V14.336H113.745V18.176H103.505V48H98.961V10.176C98.961 7.104 99.8357 4.672 101.585 2.88C103.377 1.088 105.894 0.191998 109.137 0.191998C110.417 0.191998 111.654 0.383998 112.849 0.767998C114.044 1.10933 115.046 1.62133 115.857 2.304L114.321 5.696C112.998 4.58666 111.334 4.032 109.329 4.032ZM133.736 44.288C135.827 44.288 137.747 43.9253 139.496 43.2C141.288 42.432 142.803 41.3227 144.04 39.872L146.6 42.816C145.107 44.608 143.251 45.9733 141.032 46.912C138.813 47.8507 136.36 48.32 133.672 48.32C130.216 48.32 127.144 47.5947 124.456 46.144C121.768 44.6507 119.677 42.6027 118.184 40C116.691 37.3973 115.944 34.4533 115.944 31.168C115.944 27.8827 116.648 24.9387 118.056 22.336C119.507 19.7333 121.491 17.7067 124.008 16.256C126.525 14.8053 129.384 14.08 132.584 14.08C135.571 14.08 138.259 14.7627 140.648 16.128C143.08 17.4933 145 19.392 146.408 21.824C147.859 24.256 148.627 27.0293 148.712 30.144L121.064 35.52C121.917 38.2507 123.453 40.4053 125.672 41.984C127.933 43.52 130.621 44.288 133.736 44.288ZM132.584 17.984C130.237 17.984 128.125 18.5387 126.248 19.648C124.413 20.7147 122.963 22.2293 121.896 24.192C120.872 26.112 120.36 28.3307 120.36 30.848C120.36 31.488 120.381 31.9573 120.424 32.256L144.168 27.648C143.656 24.832 142.355 22.528 140.264 20.736C138.173 18.9013 135.613 17.984 132.584 17.984Z" fill="black"/>
</svg>
