<svg width="29" height="21" viewBox="0 0 29 21" fill="none" xmlns="http://www.w3.org/2000/svg">
<path d="M29 10.5905C29 10.6616 29 10.7424 28.9968 10.8361C28.9935 11.0979 28.9871 11.392 28.9806 11.7054C28.9547 12.6071 28.9094 13.5055 28.8382 14.3523C28.7411 15.5189 28.5987 16.4917 28.4045 17.2221C28.1995 17.9843 27.7978 18.6794 27.2395 19.2381C26.6812 19.7967 25.9858 20.1992 25.2229 20.4054C24.3069 20.651 22.5138 20.8029 19.9893 20.8966C18.7885 20.9418 17.5036 20.9709 16.2186 20.9871C15.7687 20.9935 15.3512 20.9968 14.9758 21H14.0242C13.6488 20.9968 13.2312 20.9935 12.7814 20.9871C11.4964 20.9709 10.2115 20.9418 9.01071 20.8966C6.48616 20.7996 4.68984 20.6477 3.77712 20.4054C3.01393 20.1997 2.31828 19.7973 1.75989 19.2387C1.20149 18.68 0.79996 17.9845 0.595536 17.2221C0.398103 16.4917 0.258929 15.5189 0.16183 14.3523C0.090625 13.5055 0.0453124 12.6071 0.0194196 11.7054C0.00970977 11.392 0.00647317 11.0979 0.00323656 10.8361C0.00323656 10.7424 0 10.6616 0 10.5905V10.4095C0 10.3384 -4.94349e-08 10.2576 0.00323656 10.1639C0.00647317 9.90212 0.0129464 9.60803 0.0194196 9.29455C0.0453124 8.39289 0.090625 7.49446 0.16183 6.64774C0.258929 5.48107 0.401339 4.50831 0.595536 3.77793C1.00982 2.22992 2.22679 1.00831 3.77712 0.594645C4.68984 0.349031 6.48616 0.19714 9.01071 0.103418C10.2115 0.0581741 11.4964 0.0290852 12.7814 0.012928C13.2312 0.006464 13.6488 0.00323105 14.0242 0H14.9758C15.3512 0.00323105 15.7687 0.006464 16.2186 0.012928C17.5036 0.0290852 18.7885 0.0581741 19.9893 0.103418C22.5138 0.200371 24.3102 0.352262 25.2229 0.594645C26.7732 1.00831 27.9902 2.22668 28.4045 3.77793C28.6019 4.50831 28.7411 5.48107 28.8382 6.64774C28.9094 7.49446 28.9547 8.39289 28.9806 9.29455C28.9903 9.60803 28.9935 9.90212 28.9968 10.1639C28.9968 10.2576 29 10.3384 29 10.4095V10.5905ZM26.6696 10.4224C26.6696 10.3546 26.6696 10.2802 26.6664 10.193C26.6632 9.94091 26.6567 9.66297 26.6502 9.36242C26.6276 8.50277 26.5823 7.64312 26.5143 6.84488C26.4269 5.80425 26.3039 4.95106 26.1518 4.37904C25.9511 3.6325 25.3621 3.04109 24.6176 2.84395C23.9379 2.66297 22.2258 2.51755 19.8987 2.43029C18.7205 2.38504 17.4518 2.35596 16.1863 2.3398C15.7429 2.33333 15.3318 2.3301 14.9628 2.3301H14.0372L12.8137 2.3398C11.5482 2.35596 10.2827 2.38504 9.10134 2.43029C6.77422 2.52078 5.05882 2.66297 4.38237 2.84395C3.63795 3.04432 3.04888 3.6325 2.84821 4.37904C2.69609 4.95106 2.5731 5.80425 2.48571 6.84488C2.41775 7.64312 2.37567 8.50277 2.34978 9.36242C2.34007 9.66297 2.33683 9.94414 2.33359 10.193C2.33359 10.2802 2.33036 10.3578 2.33036 10.4224V10.5776C2.33036 10.6454 2.33036 10.7198 2.33359 10.807C2.33683 11.0591 2.3433 11.337 2.34978 11.6376C2.37243 12.4972 2.41775 13.3569 2.48571 14.1551C2.5731 15.1958 2.69609 16.0489 2.84821 16.621C3.04888 17.3675 3.63795 17.9589 4.38237 18.156C5.06205 18.337 6.77422 18.4825 9.10134 18.5697C10.2795 18.615 11.5482 18.644 12.8137 18.6602C13.2571 18.6667 13.6682 18.6699 14.0372 18.6699H14.9628L16.1863 18.6602C17.4518 18.644 18.7173 18.615 19.8987 18.5697C22.2258 18.4792 23.9412 18.337 24.6176 18.156C25.3621 17.9557 25.9511 17.3675 26.1518 16.621C26.3039 16.0489 26.4269 15.1958 26.5143 14.1551C26.5823 13.3569 26.6243 12.4972 26.6502 11.6376C26.6599 11.337 26.6632 11.0559 26.6664 10.807C26.6664 10.7198 26.6696 10.6422 26.6696 10.5776V10.4224ZM11.6194 6.16944L19.1283 10.5323L11.6194 14.8306V6.16944Z" fill="black"/>
</svg>
